HIERARCHY
ROOT Hips
{
  OFFSET 5.84602e-005 68.8428 3.50346
  CHANNELS 6 Xposition Yposition Zposition Zrotation Xrotation Yrotation
  JOINT Spine
  {
    OFFSET 0 8.597 -4.6522
    CHANNELS 3 Zrotation Xrotation Yrotation
    JOINT Spine1
    {
      OFFSET 0 7.8454 0.4098
      CHANNELS 3 Zrotation Xrotation Yrotation
      JOINT Spine2
      {
        OFFSET 0 9.7078 -2.1609
        CHANNELS 3 Zrotation Xrotation Yrotation
        JOINT Neck
        {
          OFFSET 0 21.8761 -0.4549
          CHANNELS 3 Zrotation Xrotation Yrotation
          JOINT Head
          {
            OFFSET 0 12.3537 3.3602
            CHANNELS 3 Zrotation Xrotation Yrotation
            End Site
            {
              OFFSET 0.0001 18.9506 0.5657
            }
          }
        }
        JOINT LeftShoulder
        {
          OFFSET 2.2086 21.1115 7.2329
          CHANNELS 3 Zrotation Xrotation Yrotation
          JOINT LeftArm
          {
            OFFSET 13.1193 3.0282 -4.8998
            CHANNELS 3 Zrotation Xrotation Yrotation
            JOINT LeftForeArm
            {
              OFFSET 27.4081 -0.0973053 -0.2375
              CHANNELS 3 Zrotation Xrotation Yrotation
              JOINT LeftHand
              {
                OFFSET 22.8641 0.0662994 -0.1369
                CHANNELS 3 Zrotation Xrotation Yrotation
                JOINT LeftHandIndex1
                {
                  OFFSET 8.8614 0.775009 2.4612
                  CHANNELS 3 Zrotation Xrotation Yrotation
                  JOINT LeftHandIndex2
                  {
                    OFFSET 3.3146 -0.808304 0.5841
                    CHANNELS 3 Zrotation Xrotation Yrotation
                    JOINT LeftHandIndex3
                    {
                      OFFSET 2.2628 -0.552002 0.3989
                      CHANNELS 3 Zrotation Xrotation Yrotation
                      End Site
                      {
                        OFFSET 1.6102 -0.4807 0.2612
                      }
                    }
                  }
                }
                JOINT LeftHandMiddle1
                {
                  OFFSET 8.9937 0.895004 0.2143
                  CHANNELS 3 Zrotation Xrotation Yrotation
                  JOINT LeftHandMiddle2
                  {
                    OFFSET 4.0984 0.0113983 -0.0242
                    CHANNELS 3 Zrotation Xrotation Yrotation
                    JOINT LeftHandMiddle3
                    {
                      OFFSET 2.2716 0.00689697 -0.0138001
                      CHANNELS 3 Zrotation Xrotation Yrotation
                      End Site
                      {
                        OFFSET 2.0404 -0.1441 0.0027
                      }
                    }
                  }
                }
                JOINT LeftHandRing1
                {
                  OFFSET 8.5234 0.597198 -2.0164
                  CHANNELS 3 Zrotation Xrotation Yrotation
                  JOINT LeftHandRing2
                  {
                    OFFSET 3.7188 -0.188293 -0.2328
                    CHANNELS 3 Zrotation Xrotation Yrotation
                    JOINT LeftHandRing3
                    {
                      OFFSET 2.1191 -0.106598 -0.1332
                      CHANNELS 3 Zrotation Xrotation Yrotation
                      End Site
                      {
                        OFFSET 1.8737 -0.2304 -0.0886
                      }
                    }
                  }
                }
                JOINT LeftHandPinky1
                {
                  OFFSET 7.9094 -0.601089 -3.4825
                  CHANNELS 3 Zrotation Xrotation Yrotation
                  JOINT LeftHandPinky2
                  {
                    OFFSET 2.2874 -0.477005 -0.6314
                    CHANNELS 3 Zrotation Xrotation Yrotation
                    JOINT LeftHandPinky3
                    {
                      OFFSET 1.6774 -0.349396 -0.4633
                      CHANNELS 3 Zrotation Xrotation Yrotation
                      End Site
                      {
                        OFFSET 1.4888 -0.4091 -0.3416
                      }
                    }
                  }
                }
                JOINT LeftHandThumb1
                {
                  OFFSET 1.833 -1.3875 1.3896
                  CHANNELS 3 Zrotation Xrotation Yrotation
                  JOINT LeftHandThumb2
                  {
                    OFFSET 3.4129 -1.121 2.5732
                    CHANNELS 3 Zrotation Xrotation Yrotation
                    JOINT LeftHandThumb3
                    {
                      OFFSET 2.2474 -0.804199 1.6192
                      CHANNELS 3 Zrotation Xrotation Yrotation
                      End Site
                      {
                        OFFSET 1.6527 -0.5689 1.1317
                      }
                    }
                  }
                }
              }
            }
          }
        }
        JOINT RightShoulder
        {
          OFFSET -2.2086 21.1115 7.2329
          CHANNELS 3 Zrotation Xrotation Yrotation
          JOINT RightArm
          {
            OFFSET -13.1216 3.0287 -4.9007
            CHANNELS 3 Zrotation Xrotation Yrotation
            JOINT RightForeArm
            {
              OFFSET -27.4081 -0.0973053 -0.2375
              CHANNELS 3 Zrotation Xrotation Yrotation
              JOINT RightHand
              {
                OFFSET -22.8641 0.0664063 -0.1369
                CHANNELS 3 Zrotation Xrotation Yrotation
                JOINT RightHandIndex1
                {
                  OFFSET -8.8614 0.774994 2.4612
                  CHANNELS 3 Zrotation Xrotation Yrotation
                  JOINT RightHandIndex2
                  {
                    OFFSET -3.3146 -0.808304 0.5841
                    CHANNELS 3 Zrotation Xrotation Yrotation
                    JOINT RightHandIndex3
                    {
                      OFFSET -2.2628 -0.552002 0.3989
                      CHANNELS 3 Zrotation Xrotation Yrotation
                      End Site
                      {
                        OFFSET -1.6102 -0.4807 0.2612
                      }
                    }
                  }
                }
                JOINT RightHandMiddle1
                {
                  OFFSET -8.9937 0.894989 0.2143
                  CHANNELS 3 Zrotation Xrotation Yrotation
                  JOINT RightHandMiddle2
                  {
                    OFFSET -4.0984 0.0113983 -0.0242
                    CHANNELS 3 Zrotation Xrotation Yrotation
                    JOINT RightHandMiddle3
                    {
                      OFFSET -2.2716 0.00691223 -0.0138001
                      CHANNELS 3 Zrotation Xrotation Yrotation
                      End Site
                      {
                        OFFSET -2.0404 -0.1441 0.0027
                      }
                    }
                  }
                }
                JOINT RightHandRing1
                {
                  OFFSET -8.5234 0.597198 -2.0164
                  CHANNELS 3 Zrotation Xrotation Yrotation
                  JOINT RightHandRing2
                  {
                    OFFSET -3.7188 -0.188309 -0.2328
                    CHANNELS 3 Zrotation Xrotation Yrotation
                    JOINT RightHandRing3
                    {
                      OFFSET -2.1191 -0.106598 -0.1332
                      CHANNELS 3 Zrotation Xrotation Yrotation
                      End Site
                      {
                        OFFSET -1.8737 -0.2304 -0.0886
                      }
                    }
                  }
                }
                JOINT RightHandPinky1
                {
                  OFFSET -7.9094 -0.601105 -3.4825
                  CHANNELS 3 Zrotation Xrotation Yrotation
                  JOINT RightHandPinky2
                  {
                    OFFSET -2.2874 -0.477005 -0.6314
                    CHANNELS 3 Zrotation Xrotation Yrotation
                    JOINT RightHandPinky3
                    {
                      OFFSET -1.6774 -0.349396 -0.4633
                      CHANNELS 3 Zrotation Xrotation Yrotation
                      End Site
                      {
                        OFFSET -1.4888 -0.4091 -0.3416
                      }
                    }
                  }
                }
                JOINT RightHandThumb1
                {
                  OFFSET -1.833 -1.38751 1.3896
                  CHANNELS 3 Zrotation Xrotation Yrotation
                  JOINT RightHandThumb2
                  {
                    OFFSET -3.41299 -1.12099 2.5732
                    CHANNELS 3 Zrotation Xrotation Yrotation
                    JOINT RightHandThumb3
                    {
                      OFFSET -2.24741 -0.804108 1.6192
                      CHANNELS 3 Zrotation Xrotation Yrotation
                      End Site
                      {
                        OFFSET -1.6527 -0.5689 1.1317
                      }
                    }
                  }
                }
              }
            }
          }
        }
      }
    }
  }
  JOINT RightUpLeg
  {
    OFFSET -9.1966 3.8861 -0.7581
    CHANNELS 3 Zrotation Xrotation Yrotation
    JOINT RightLeg
    {
      OFFSET -0.7359 -41.0265 0
      CHANNELS 3 Zrotation Xrotation Yrotation
      JOINT RightFoot
      {
        OFFSET 0 -40.2855 0
        CHANNELS 3 Zrotation Xrotation Yrotation
        JOINT RightToeBase
        {
          OFFSET 0 -5.6122 11.7359
          CHANNELS 3 Zrotation Xrotation Yrotation
          End Site
          {
            OFFSET 0 0 7.8731
          }
        }
      }
    }
  }
  JOINT LeftUpLeg
  {
    OFFSET 9.1965 3.8864 -0.7581
    CHANNELS 3 Zrotation Xrotation Yrotation
    JOINT LeftLeg
    {
      OFFSET 0.7359 -41.0268 0
      CHANNELS 3 Zrotation Xrotation Yrotation
      JOINT LeftFoot
      {
        OFFSET 0 -40.2855 0
        CHANNELS 3 Zrotation Xrotation Yrotation
        JOINT LeftToeBase
        {
          OFFSET 0 -5.6122 11.7359
          CHANNELS 3 Zrotation Xrotation Yrotation
          End Site
          {
            OFFSET 0 0 7.8731
          }
        }
      }
    }
  }
}
MOTION
Frames:	6
Frame Time:	0.0333333
-0.0324074 1.61365 -3.7884 -180 -89.798 -180 -0.0504286 5.88979 -0.115924 -0.0895186 11.7797 -0.228432 -0.0895185 11.7797 -0.228432 -8.48895 9.5328 1.36853 9.99907 -0.0041341 35.9978 -19.9856 -12.5935 -1.07332 -61.2451 4.27566 22.2931 28.0433 18.5997 -48.0781 -11.2925 26.4308 4.39233 -1.39149e-015 -2.48481e-016 -1.59028e-015 -9.93923e-016 3.3048e-015 -0 -1.98785e-015 3.52843e-015 -3.18055e-015 -1.39149e-015 -2.48481e-016 -1.59028e-015 -0.0146126 -8.98027e-005 -8.07878e-006 -1.29105e-007 -1.01901e-007 -7.69129e-007 -1.39149e-015 -2.48481e-016 -1.59028e-015 -0.0187526 -0.00117703 5.8189e-005 -2.75869e-033 -9.93923e-017 -1.59028e-015 -1.39149e-015 -2.48481e-016 -1.59028e-015 -0.0122757 -0.00324782 0.000673122 5.96354e-016 6.88292e-015 6.36111e-015 -1.39149e-015 -2.48481e-016 -1.59028e-015 -9.93923e-016 3.3048e-015 -0 -1.98785e-015 3.52843e-015 -3.18055e-015 19.5938 -12.4659 0.612618 61.8339 4.34443 -22.2351 -28.2232 18.4966 48.6642 11.3332 24.7842 -5.86733 -2.32387e-006 -2.26806e-007 6.15931e-007 -2.32387e-006 -2.26806e-007 6.15931e-007 -2.32387e-006 -2.26806e-007 6.15931e-007 -2.32387e-006 -2.26806e-007 6.15931e-007 0.0150032 -8.92378e-005 -7.03747e-007 -2.32387e-006 -2.26725e-007 6.15963e-007 -2.32387e-006 -2.26806e-007 6.15931e-007 0.0190012 -0.00119291 -5.42168e-005 -2.32386e-006 -2.26705e-007 6.15993e-007 -2.32387e-006 -2.26806e-007 6.15931e-007 0.0122888 -0.00325504 -0.000675636 -2.32385e-006 -2.26754e-007 6.16022e-007 -2.32387e-006 -2.26806e-007 6.15931e-007 -2.32387e-006 -2.26806e-007 6.15931e-007 -2.32387e-006 -2.26806e-007 6.15931e-007 -7.82825 -36.6284 12.5241 46.5423 14.6154 -58.2784 -10.8445 22.535 -3.73549 4.77083e-015 6.36111e-015 -3.18055e-015 11.4092 -35.8013 -11.2161 -47.8246 3.31441 42.0181 11.3258 23.636 3.5214 4.15932e-006 1.07265e-005 -4.38859e-006 
-0.0323583 1.6298 -3.79673 -180 -89.6646 -180 -0.0502245 5.84359 -0.116048 -0.0891802 11.6874 -0.228716 -0.0891802 11.6874 -0.228716 -8.44279 9.58051 1.36456 9.99907 -0.0041246 35.9978 -19.9811 -12.3385 -0.823634 -61.2451 4.27563 22.2931 28.0433 18.5997 -48.0781 -11.2929 26.4184 4.39777 1.98785e-016 1.26725e-014 4.77083e-015 9.93923e-016 9.79014e-015 -0 1.39149e-015 1.63997e-014 -0 1.98785e-016 1.26725e-014 4.77083e-015 -0.0146182 -8.64901e-005 -1.0963e-005 2.18663e-015 2.73329e-016 1.74931e-014 1.98785e-016 1.26725e-014 4.77083e-015 -0.018748 -0.00117737 6.42463e-005 1.98785e-016 -9.91439e-015 -1.59028e-015 1.98785e-016 1.26725e-014 4.77083e-015 -0.0122885 -0.00325339 0.000669979 -1.98785e-016 -1.76421e-015 3.18055e-015 1.98785e-016 1.26725e-014 4.77083e-015 9.93923e-016 9.79014e-015 -0 1.39149e-015 1.63997e-014 -0 19.5786 -12.2119 0.368904 61.8339 4.34442 -22.235 -28.2232 18.4966 48.6642 11.3268 24.9214 -5.80192 7.95139e-016 9.64106e-015 1.59028e-015 3.97569e-016 1.00386e-014 -0 3.97569e-016 6.90777e-015 -0 7.95139e-016 9.64106e-015 1.59028e-015 0.0150053 -9.1326e-005 1.217e-005 -1.59028e-015 -5.01931e-015 -1.27222e-014 7.95139e-016 9.64106e-015 1.59028e-015 0.019 -0.00119204 -5.6105e-005 1.19271e-015 1.04362e-015 1.59028e-015 7.95139e-016 9.64106e-015 1.59028e-015 0.0122447 -0.0032442 -0.000676805 0 3.97569e-015 -0 7.95139e-016 9.64106e-015 1.59028e-015 3.97569e-016 1.00386e-014 -0 3.97569e-016 6.90777e-015 -0 -7.82547 -36.6266 12.5195 46.7092 14.7776 -58.3264 -10.8456 22.5374 -3.73503 3.18055e-015 3.18055e-015 -0 11.4128 -35.7997 -11.2084 -47.8045 3.43749 42.0091 11.3289 23.6375 3.52059 3.18055e-015 1.59028e-015 5.56597e-015 
-0.0323133 1.64592 -3.80509 -180 -89.5312 -180 -0.0500198 5.79729 -0.116172 -0.0888415 11.5947 -0.228999 -0.0888414 11.5947 -0.228999 -8.3965 9.62806 1.36053 9.99907 -0.00413032 35.9978 -19.9778 -12.0832 -0.574113 -61.2451 4.27565 22.2931 28.0433 18.5997 -48.0781 -11.2933 26.4059 4.40325 2.33976e-006 -1.89556e-007 -5.66459e-007 2.33976e-006 -1.89556e-007 -5.66459e-007 2.33976e-006 -1.89556e-007 -5.66459e-007 2.33976e-006 -1.89556e-007 -5.66459e-007 -0.0146293 -8.96776e-005 7.13445e-006 2.33975e-006 -1.89484e-007 -5.66485e-007 2.33976e-006 -1.89556e-007 -5.66459e-007 -0.0187678 -0.001175 5.6425e-005 2.33975e-006 -1.89464e-007 -5.66514e-007 2.33976e-006 -1.89556e-007 -5.66459e-007 -0.0122772 -0.00325145 0.000675788 2.33974e-006 -1.89509e-007 -5.66545e-007 2.33976e-006 -1.89556e-007 -5.66459e-007 2.33976e-006 -1.89556e-007 -5.66459e-007 2.33976e-006 -1.89556e-007 -5.66459e-007 19.5645 -11.9576 0.125392 61.8339 4.34443 -22.235 -28.2232 18.4966 48.6642 11.3202 25.0587 -5.73639 -1.04936e-006 -1.27458e-006 3.14646e-007 -1.04936e-006 -1.27458e-006 3.14647e-007 -2.09873e-006 -2.54916e-006 6.29293e-007 -1.04936e-006 -1.27458e-006 3.14646e-007 0.015009 -8.81821e-005 5.0752e-008 -2.09881e-006 -2.54907e-006 6.29628e-007 -1.04936e-006 -1.27458e-006 3.14646e-007 0.0189961 -0.00118923 -5.74251e-005 -2.27045e-006 -2.69057e-006 -2.84086e-007 -1.04936e-006 -1.27458e-006 3.14646e-007 0.0122621 -0.00325009 -0.000679158 -2.09876e-006 -2.54909e-006 6.29629e-007 -1.04936e-006 -1.27458e-006 3.14646e-007 -1.04936e-006 -1.27458e-006 3.14647e-007 -2.09873e-006 -2.54916e-006 6.29293e-007 -7.82276 -36.6249 12.5149 46.8765 14.9398 -58.375 -10.8468 22.5398 -3.73456 -2.78228e-006 -4.53004e-006 4.4732e-007 11.4163 -35.7981 -11.2006 -47.7844 3.56059 42 11.3321 23.639 3.51975 -2.44865e-006 2.51363e-006 2.46597e-006 
-0.0322626 1.66202 -3.8135 -180 -89.3978 -180 -0.0498147 5.75088 -0.116295 -0.0885023 11.5019 -0.229282 -0.0885023 11.5019 -0.229282 -8.35023 9.67588 1.35645 9.99907 -0.00413159 35.9978 -19.9755 -11.828 -0.324812 -61.2451 4.27563 22.2931 28.0433 18.5997 -48.0781 -11.2937 26.3935 4.4087 3.41339e-006 -1.45443e-006 -8.60888e-007 3.41339e-006 -1.45443e-006 -8.60888e-007 2.33892e-006 -1.89981e-007 -5.69769e-007 3.41339e-006 -1.45443e-006 -8.60888e-007 -0.0146125 -8.74024e-005 -1.09803e-005 2.33892e-006 -1.89909e-007 -5.69795e-007 3.41339e-006 -1.45443e-006 -8.60888e-007 -0.0187562 -0.00117638 5.55154e-005 2.33891e-006 -1.89889e-007 -5.69824e-007 3.41339e-006 -1.45443e-006 -8.60888e-007 -0.0122888 -0.00325615 0.000677042 2.3389e-006 -1.89934e-007 -5.69856e-007 3.41339e-006 -1.45443e-006 -8.60888e-007 3.41339e-006 -1.45443e-006 -8.60888e-007 2.33892e-006 -1.89981e-007 -5.69769e-007 19.5515 -11.7034 -0.117848 61.8339 4.34445 -22.235 -28.2232 18.4966 48.6642 11.3134 25.1959 -5.67079 -1.09651e-006 1.1918e-006 1.21165e-006 -2.54837e-006 2.09959e-006 6.04818e-007 -1.27419e-006 1.04979e-006 3.02409e-007 -1.09651e-006 1.1918e-006 1.21165e-006 0.014998 -9.05647e-005 5.43256e-006 -1.09776e-006 1.19197e-006 1.2115e-006 -1.09651e-006 1.1918e-006 1.21165e-006 0.0189875 -0.00118683 -6.74585e-005 -1.27413e-006 1.04984e-006 3.02248e-007 -1.09651e-006 1.1918e-006 1.21165e-006 0.0122623 -0.00324589 -0.000676383 -1.27415e-006 1.04981e-006 3.02331e-007 -1.09651e-006 1.1918e-006 1.21165e-006 -2.54837e-006 2.09959e-006 6.04818e-007 -1.27419e-006 1.04979e-006 3.02409e-007 -7.82009 -36.6231 12.5102 47.0441 15.1018 -58.4242 -10.8479 22.5422 -3.7341 -1.75147e-007 2.68321e-006 -1.34871e-006 11.4199 -35.7966 -11.1929 -47.7641 3.68365 41.9909 11.3352 23.6406 3.51895 2.41115e-006 8.68654e-006 4.1992e-006 
-0.0322143 1.6781 -3.82195 -180 -89.2644 -180 -0.0496092 5.70435 -0.116418 -0.088163 11.4088 -0.229564 -0.088163 11.4088 -0.229564 -8.30397 9.72377 1.35234 9.99907 -0.00412911 35.9978 -19.9745 -11.5726 -0.0756946 -61.2451 4.27565 22.2931 28.0433 18.5997 -48.0781 -11.2941 26.3811 4.41415 -1.12265e-006 1.16968e-006 -5.05694e-006 3.60232e-006 8.83462e-007 -8.53742e-007 2.33808e-006 -1.90386e-007 -5.73081e-007 -1.12265e-006 1.16968e-006 -5.05694e-006 -0.0146103 -8.60413e-005 4.07554e-006 2.33808e-006 -1.90313e-007 -5.73107e-007 -1.12265e-006 1.16968e-006 -5.05694e-006 -0.0187562 -0.00117235 5.671e-005 2.33807e-006 -1.90293e-007 -5.73136e-007 -1.12265e-006 1.16968e-006 -5.05694e-006 -0.0122552 -0.00324218 0.000673206 2.19575e-006 -2.35732e-007 -1.34653e-006 -1.12265e-006 1.16968e-006 -5.05694e-006 3.60232e-006 8.83462e-007 -8.53742e-007 2.33808e-006 -1.90386e-007 -5.73081e-007 19.5397 -11.4489 -0.36087 61.8339 4.34442 -22.235 -28.2232 18.4966 48.6642 11.3064 25.3331 -5.60506 3.97569e-016 1.37658e-014 1.59028e-015 3.97569e-016 1.10325e-014 1.59028e-015 7.95139e-016 1.14798e-014 3.18055e-015 3.97569e-016 1.37658e-014 1.59028e-015 0.0149962 -8.93875e-005 2.16426e-007 1.80805e-007 1.42884e-007 9.04541e-007 3.97569e-016 1.37658e-014 1.59028e-015 0.0189953 -0.0011941 -5.71565e-005 1.40693e-031 2.5345e-015 -3.18055e-015 3.97569e-016 1.37658e-014 1.59028e-015 0.0122686 -0.00324719 -0.000676057 1.19271e-015 1.88845e-015 -4.77083e-015 3.97569e-016 1.37658e-014 1.59028e-015 3.97569e-016 1.10325e-014 1.59028e-015 7.95139e-016 1.14798e-014 3.18055e-015 -7.81741 -36.6212 12.5056 47.2119 15.2636 -58.4738 -10.8491 22.5446 -3.73361 8.08457e-007 -6.84571e-006 1.1938e-006 11.4235 -35.795 -11.1852 -47.7439 3.80674 41.9818 11.3384 23.6421 3.51812 1.53778e-007 -2.30471e-006 -2.78136e-006 
-0.0321633 1.69415 -3.83045 -180 -89.131 -180 -0.0494035 5.65773 -0.116541 -0.0878239 11.3155 -0.229846 -0.0878239 11.3155 -0.229846 -8.25767 9.77183 1.34818 9.99908 -0.00413233 35.9978 -19.9745 -11.3173 0.173234 -61.2451 4.27564 22.2931 28.0433 18.5997 -48.0781 -11.2945 26.3686 4.41961 -2.33724e-006 1.90768e-007 5.76398e-007 -2.33724e-006 1.90768e-007 5.76398e-007 -2.33724e-006 1.90768e-007 5.76398e-007 -2.33724e-006 1.90768e-007 5.76398e-007 -0.0146106 -8.95773e-005 -1.3728e-007 -2.33724e-006 1.90694e-007 5.76424e-007 -2.33724e-006 1.90768e-007 5.76398e-007 -0.0187684 -0.00117673 6.69056e-005 -2.33723e-006 1.90675e-007 5.76453e-007 -2.33724e-006 1.90768e-007 5.76398e-007 -0.0122679 -0.00324594 0.000669447 -2.33722e-006 1.9072e-007 5.76485e-007 -2.33724e-006 1.90768e-007 5.76398e-007 -2.33724e-006 1.90768e-007 5.76398e-007 -2.33724e-006 1.90768e-007 5.76398e-007 19.5289 -11.1945 -0.603651 61.8339 4.34444 -22.2351 -28.2232 18.4966 48.6642 11.2992 25.4704 -5.53926 3.97569e-016 1.19271e-015 1.59028e-015 3.97569e-016 4.37326e-015 -0 -6.20706e-032 -2.23633e-015 -1.59028e-015 3.97569e-016 1.19271e-015 1.59028e-015 0.0150062 -8.73835e-005 1.79961e-006 1.98785e-015 6.06293e-015 3.18055e-015 3.97569e-016 1.19271e-015 1.59028e-015 0.0190076 -0.0011877 -6.20029e-005 -1.19271e-015 -5.06901e-015 -1.59028e-015 3.97569e-016 1.19271e-015 1.59028e-015 0.0122487 -0.00324391 -0.000673501 2.45524e-031 4.42296e-015 -3.18055e-015 3.97569e-016 1.19271e-015 1.59028e-015 3.97569e-016 4.37326e-015 -0 -6.20706e-032 -2.23633e-015 -1.59028e-015 -7.81471 -36.6194 12.5009 47.38 15.4253 -58.524 -10.8503 22.5471 -3.73314 -3.18055e-015 6.36111e-015 -3.18055e-015 11.4271 -35.7934 -11.1774 -47.7237 3.92982 41.9727 11.3415 23.6436 3.5173 3.12169e-006 1.08e-005 7.4691e-007 
